<svg xmlns="http://www.w3.org/2000/svg" data-name="Layer 1" viewBox="0 0 95 118.75" x="0px" y="0px"><path d="M47.5,1A30.24,30.24,0,0,0,17.294,31.206c0,8.709,7.616,25.058,14.005,37.239,4.224,8.054,7.949,14.359,9.793,17.4,1.337,2.2,2.523,4.08,3.432,5.423C45.919,93.333,46.458,94,47.5,94s1.581-.667,2.976-2.731c.909-1.343,2.095-3.218,3.432-5.423,1.844-3.042,5.569-9.347,9.793-17.4,6.389-12.181,14.005-28.53,14.005-37.239A30.24,30.24,0,0,0,47.5,1Zm0,88.588c-5.35-7.834-26.789-44.9-26.789-58.382a26.789,26.789,0,0,1,53.578,0C74.289,44.689,52.85,81.754,47.5,89.588Zm0-76.682a18.3,18.3,0,1,0,18.3,18.3A18.321,18.321,0,0,0,47.5,12.906Zm0,33.183A14.883,14.883,0,1,1,62.383,31.206,14.9,14.9,0,0,1,47.5,46.089Z"/><text x="0" y="110" fill="#000000" font-size="5px" font-weight="bold" font-family="'Helvetica Neue', Helvetica, Arial-Unicode, Arial, Sans-serif">Created by Kholifah</text><text x="0" y="115" fill="#000000" font-size="5px" font-weight="bold" font-family="'Helvetica Neue', Helvetica, Arial-Unicode, Arial, Sans-serif">from the Noun Project</text></svg>