<svg xmlns="http://www.w3.org/2000/svg" width="1200" height="1171" viewBox="0 0 1200 1171" version="1.1"><path d="M 347.934 6.009 C 257.392 10.904, 194.696 43.506, 152.759 107.500 C 138.882 128.676, 126.234 155.672, 116.686 184.500 C 111.201 201.060, 12.077 583.811, 8.563 602 C 1.523 638.436, 2.751 671.997, 12.099 698.688 C 30.076 750.020, 73.806 782.754, 138 792.933 C 161.256 796.621, 174.700 797, 282.200 797 C 339.840 797, 387 797.240, 387 797.533 C 387 798.569, 324.950 998.272, 324.285 999.378 C 323.913 999.995, 298.478 1037.751, 267.762 1083.279 C 237.046 1128.808, 211.660 1166.721, 211.350 1167.531 C 210.853 1168.826, 238.586 1168.974, 441.004 1168.752 L 671.224 1168.500 701.362 1071.264 L 731.500 974.028 796.943 974.014 C 833.326 974.006, 868.629 973.530, 876.443 972.941 C 993.131 964.152, 1059.117 913.117, 1097.466 802 C 1102.762 786.656, 1183.049 491.262, 1188.518 467 C 1194.706 439.551, 1196.304 408.262, 1192.579 387.500 C 1180.887 322.340, 1131.370 281.151, 1052 270.563 C 1028.894 267.480, 1010.385 267.020, 909.250 267.010 C 853.013 267.004, 807 266.680, 807 266.290 C 807 265.899, 811.480 246.212, 816.956 222.540 C 828.934 170.760, 829.991 164.586, 829.996 146.381 C 830.002 123.924, 826.141 107.144, 816.630 88.304 C 792.747 40.995, 742.200 13.200, 669 7.126 C 653.288 5.822, 369.642 4.835, 347.934 6.009 M 339 63.092 C 250.211 71.134, 201.260 110.611, 171.576 198.115 C 167.014 211.564, 67.855 593.038, 64.077 611.672 C 55.007 656.416, 62.092 688.922, 85.762 711.163 C 99.919 724.465, 118.067 732.349, 145.113 736.946 C 167.447 740.741, 189.380 741.161, 343.500 740.740 C 473.263 740.386, 491.966 740.144, 503 738.679 C 577.089 728.838, 620.679 700.375, 648.878 643.425 C 657.312 626.392, 661.055 615.465, 676.940 561.500 C 684.711 535.100, 691.265 512.938, 691.503 512.250 C 691.849 511.254, 663.236 511, 550.606 511 L 409.274 511 408.069 518.750 C 404.583 541.165, 398.106 557.652, 389.189 566.806 C 382.233 573.948, 377.198 576.258, 367.500 576.758 C 356.387 577.330, 355.754 576.738, 357.086 567 C 358.232 558.615, 371.074 505.730, 408.363 355.821 C 428.346 275.487, 434.359 252.710, 437.008 247.321 C 445.170 230.710, 462.140 221.271, 474.532 226.449 C 476.439 227.246, 478 228.573, 478 229.398 C 478 230.529, 468.356 273.319, 463.497 293.750 L 462.962 296 602.391 296 L 741.821 296 743.866 287.250 C 744.991 282.438, 750.455 259.150, 756.009 235.500 C 771.229 170.690, 773.136 161.540, 773.729 150.459 C 775.927 109.370, 747.722 79.148, 696.897 68.137 C 670.497 62.417, 678.048 62.643, 506.500 62.429 C 419.600 62.321, 344.225 62.619, 339 63.092 M 524 324.322 C 524 324.499, 530.731 342.919, 538.959 365.255 L 553.917 405.866 542.462 444.683 C 536.161 466.032, 531.005 484.056, 531.003 484.735 C 531.001 485.708, 564.089 486.026, 687.250 486.235 C 863.335 486.534, 849.262 485.852, 849.799 494.111 C 849.963 496.639, 849.185 503.160, 848.069 508.603 C 844.629 525.389, 788.456 717.238, 782.908 731.149 C 777.299 745.216, 773.024 751.214, 767.201 753.188 C 764.313 754.166, 730.076 754.510, 611.443 754.752 L 459.386 755.061 417.787 889.280 L 376.188 1023.500 346.510 1067.500 C 330.188 1091.700, 316.619 1111.838, 316.357 1112.250 C 316.096 1112.662, 386.446 1112.994, 472.691 1112.988 L 629.500 1112.975 657.464 1022.738 C 672.844 973.107, 686.524 928.970, 687.864 924.656 L 690.300 916.813 767.400 917.514 C 846.792 918.236, 870.911 917.651, 894.297 914.438 C 973.063 903.614, 1015.869 866.047, 1044.633 782.500 C 1048.743 770.562, 1126.938 482.259, 1132.440 458.755 C 1137.019 439.200, 1138.271 427.912, 1137.731 411.060 C 1137.352 399.240, 1136.717 393.738, 1135.091 388.171 C 1128.794 366.622, 1114.829 350.777, 1092.638 340.005 C 1076.476 332.159, 1056.668 327.350, 1031 325.041 C 1020.667 324.112, 524 323.407, 524 324.322" stroke="none" fill="#0c4434" fill-rule="evenodd"/><path d="M 339 63.092 C 250.211 71.134, 201.260 110.611, 171.576 198.115 C 167.014 211.564, 67.855 593.038, 64.077 611.672 C 55.007 656.416, 62.092 688.922, 85.762 711.163 C 99.919 724.465, 118.067 732.349, 145.113 736.946 C 167.447 740.741, 189.380 741.161, 343.500 740.740 C 473.263 740.386, 491.966 740.144, 503 738.679 C 577.089 728.838, 620.679 700.375, 648.878 643.425 C 657.312 626.392, 661.055 615.465, 676.940 561.500 C 684.711 535.100, 691.265 512.938, 691.503 512.250 C 691.849 511.254, 663.236 511, 550.606 511 L 409.274 511 408.069 518.750 C 404.583 541.165, 398.106 557.652, 389.189 566.806 C 382.233 573.948, 377.198 576.258, 367.500 576.758 C 356.387 577.330, 355.754 576.738, 357.086 567 C 358.232 558.615, 371.074 505.730, 408.363 355.821 C 428.346 275.487, 434.359 252.710, 437.008 247.321 C 445.170 230.710, 462.140 221.271, 474.532 226.449 C 476.439 227.246, 478 228.573, 478 229.398 C 478 230.529, 468.356 273.319, 463.497 293.750 L 462.962 296 602.391 296 L 741.821 296 743.866 287.250 C 744.991 282.438, 750.455 259.150, 756.009 235.500 C 771.229 170.690, 773.136 161.540, 773.729 150.459 C 775.927 109.370, 747.722 79.148, 696.897 68.137 C 670.497 62.417, 678.048 62.643, 506.500 62.429 C 419.600 62.321, 344.225 62.619, 339 63.092 M 524 324.322 C 524 324.499, 530.731 342.919, 538.959 365.255 L 553.917 405.866 542.462 444.683 C 536.161 466.032, 531.005 484.056, 531.003 484.735 C 531.001 485.708, 564.089 486.026, 687.250 486.235 C 863.335 486.534, 849.262 485.852, 849.799 494.111 C 849.963 496.639, 849.185 503.160, 848.069 508.603 C 844.629 525.389, 788.456 717.238, 782.908 731.149 C 777.299 745.216, 773.024 751.214, 767.201 753.188 C 764.313 754.166, 730.076 754.510, 611.443 754.752 L 459.386 755.061 417.787 889.280 L 376.188 1023.500 346.510 1067.500 C 330.188 1091.700, 316.619 1111.838, 316.357 1112.250 C 316.096 1112.662, 386.446 1112.994, 472.691 1112.988 L 629.500 1112.975 657.464 1022.738 C 672.844 973.107, 686.524 928.970, 687.864 924.656 L 690.300 916.813 767.400 917.514 C 846.792 918.236, 870.911 917.651, 894.297 914.438 C 973.063 903.614, 1015.869 866.047, 1044.633 782.500 C 1048.743 770.562, 1126.938 482.259, 1132.440 458.755 C 1137.019 439.200, 1138.271 427.912, 1137.731 411.060 C 1137.352 399.240, 1136.717 393.738, 1135.091 388.171 C 1128.794 366.622, 1114.829 350.777, 1092.638 340.005 C 1076.476 332.159, 1056.668 327.350, 1031 325.041 C 1020.667 324.112, 524 323.407, 524 324.322" stroke="none" fill="#ecd37e" fill-rule="evenodd"/></svg>