<svg xmlns="http://www.w3.org/2000/svg" data-name="Layer 1" viewBox="0 0 95 118.75" x="0px" y="0px"><path d="M83.737,15.294H11.263A10.275,10.275,0,0,0,1,25.557V69.443A10.275,10.275,0,0,0,11.263,79.706H83.737A10.275,10.275,0,0,0,94,69.443V25.557A10.275,10.275,0,0,0,83.737,15.294Zm-22,31.566,26.395-22a4.411,4.411,0,0,1,.055.694V69.443c0,.02,0,.04,0,.06ZM6.814,69.5c0-.02,0-.04,0-.06V25.557a4.411,4.411,0,0,1,.055-.694l26.4,22Zm4.624-48.4H83.561L50.64,48.542a4.843,4.843,0,0,1-6.28,0Zm-.175,52.788a4.462,4.462,0,0,1-.593-.041L37.791,50.634l2.848,2.374a10.714,10.714,0,0,0,13.722,0l2.848-2.374L84.33,73.853a4.462,4.462,0,0,1-.593.041Z"/><text x="0" y="110" fill="#000000" font-size="5px" font-weight="bold" font-family="'Helvetica Neue', Helvetica, Arial-Unicode, Arial, Sans-serif">Created by Kholifah</text><text x="0" y="115" fill="#000000" font-size="5px" font-weight="bold" font-family="'Helvetica Neue', Helvetica, Arial-Unicode, Arial, Sans-serif">from the Noun Project</text></svg>