<svg xmlns="http://www.w3.org/2000/svg" data-name="Layer 1" viewBox="0 0 95 118.75" x="0px" y="0px"><path d="M47.5,1A46.5,46.5,0,1,0,94,47.5,46.553,46.553,0,0,0,47.5,1Zm0,87.188A40.688,40.688,0,1,1,88.187,47.5,40.735,40.735,0,0,1,47.5,88.188ZM44.815,10.132l.049-.094A2.906,2.906,0,0,1,50.031,12.7l-.048.094a2.907,2.907,0,1,1-5.168-2.662Zm41.4,38.646A2.9,2.9,0,0,1,82.3,50.031l-.094-.048a2.906,2.906,0,0,1,2.661-5.168l.094.049A2.906,2.906,0,0,1,86.214,48.778Zm-36.03,36.09-.048.094A2.906,2.906,0,0,1,44.969,82.3l.048-.094a2.906,2.906,0,1,1,5.167,2.662ZM14.047,48.932a2.906,2.906,0,0,1-3.915,1.253l-.094-.049A2.906,2.906,0,0,1,12.7,44.969l.094.048A2.907,2.907,0,0,1,14.047,48.932Zm39.8,1.02a7.015,7.015,0,0,0-1.607-7.407h0a6.985,6.985,0,0,0-2.018-1.408l.1-20.454a2.907,2.907,0,0,0-2.892-2.921h-.015a2.907,2.907,0,0,0-2.906,2.892l-.1,20.457a6.94,6.94,0,0,0-2.08,1.434,7.009,7.009,0,0,0,7.41,11.52L61.3,65.626a2.906,2.906,0,0,0,4.11-4.11Zm-7.407-1.607a1.2,1.2,0,1,1,.845.35A1.2,1.2,0,0,1,46.443,48.345Z"/><text x="0" y="110" fill="#000000" font-size="5px" font-weight="bold" font-family="'Helvetica Neue', Helvetica, Arial-Unicode, Arial, Sans-serif">Created by Kholifah</text><text x="0" y="115" fill="#000000" font-size="5px" font-weight="bold" font-family="'Helvetica Neue', Helvetica, Arial-Unicode, Arial, Sans-serif">from the Noun Project</text></svg>