<svg xmlns="http://www.w3.org/2000/svg" xmlns:xlink="http://www.w3.org/1999/xlink" xml:space="preserve" version="1.1" style="shape-rendering:geometricPrecision;text-rendering:geometricPrecision;image-rendering:optimizeQuality;" viewBox="0 0 333.33 416.66249999999997" x="0px" y="0px" fill-rule="evenodd" clip-rule="evenodd"><defs><style type="text/css"></style></defs><g><path class="fil0" d="M290.6 281.51c-2.2,-42.56 -33.1,-70.09 -72.25,-82.49 -16.28,-5.15 -33.97,-7.73 -51.7,-7.73 -17.73,0 -35.43,2.58 -51.7,7.73 -39.16,12.41 -70.06,39.93 -72.28,82.47 35.85,20.63 79.87,30.95 123.98,30.95 44.1,0 88.11,-10.31 123.95,-30.93zm-123.95 -278.18c22.48,0 42.83,9.11 57.57,23.85 14.73,14.73 23.85,35.09 23.85,57.57 0,22.48 -9.11,42.83 -23.85,57.57 -14.74,14.73 -35.09,23.85 -57.57,23.85 -22.48,0 -42.84,-9.11 -57.57,-23.85 -14.74,-14.74 -23.85,-35.09 -23.85,-57.57 0,-22.48 9.11,-42.84 23.85,-57.57 14.73,-14.74 35.09,-23.85 57.57,-23.85zm45.16 36.26c-11.56,-11.56 -27.52,-18.7 -45.16,-18.7 -17.64,0 -33.61,7.15 -45.16,18.7 -11.56,11.56 -18.7,27.52 -18.7,45.16 0,17.63 7.15,33.6 18.7,45.16 11.56,11.56 27.52,18.7 45.16,18.7 17.63,0 33.6,-7.15 45.16,-18.7 11.56,-11.56 18.7,-27.52 18.7,-45.16 0,-17.64 -7.15,-33.61 -18.7,-45.16zm11.82 142.7c47.52,15.06 84.65,49.73 84.65,104.12l-0.02 0c0,2.95 -1.49,5.82 -4.2,7.47 -39.44,24.07 -88.48,36.11 -137.41,36.11 -48.93,0 -97.97,-12.04 -137.42,-36.11l0.01 -0.01c-2.51,-1.54 -4.19,-4.3 -4.19,-7.46 0,-54.4 37.11,-89.07 84.61,-104.12 18.01,-5.7 37.51,-8.56 56.98,-8.56 19.47,0 38.97,2.85 56.98,8.56z"/></g><text x="0" y="348.33" fill="#000000" font-size="5px" font-weight="bold" font-family="'Helvetica Neue', Helvetica, Arial-Unicode, Arial, Sans-serif">Created by PEBIAN</text><text x="0" y="353.33" fill="#000000" font-size="5px" font-weight="bold" font-family="'Helvetica Neue', Helvetica, Arial-Unicode, Arial, Sans-serif">from the Noun Project</text></svg>