<svg xmlns="http://www.w3.org/2000/svg" data-name="Layer 1" viewBox="0 0 100 125" x="0px" y="0px"><path d="m25.222,2c-2.902,0-5.175,1.69-5.175,3.848v4.232h-9.484c-3.462,0-6.278,2.816-6.278,6.278v75.369c0,3.459,2.816,6.273,6.278,6.273h78.88c3.459,0,6.273-2.814,6.273-6.273V16.358c0-3.462-2.814-6.278-6.273-6.278h-9.49v-4.232c0-2.158-2.271-3.848-5.17-3.848s-5.175,1.69-5.175,3.848v4.232h-14.433v-4.232c0-2.158-2.273-3.848-5.175-3.848s-5.175,1.69-5.175,3.848v4.232h-14.428v-4.232c0-2.158-2.273-3.848-5.175-3.848Zm-2.014,3.872c.096-.207.822-.711,2.014-.711s1.919.504,2.015.711v4.209h-4.029v-4.209ZM7.445,29.832h85.11v47.022h-11.78c-.873,0-1.58.707-1.58,1.58v11.78H10.563c-1.719,0-3.118-1.399-3.118-3.118V29.832Zm82.875,50.183l-7.965,7.965v-7.965h7.965Zm-.877,14.825H10.563c-1.41,0-2.603-.938-2.988-2.222.889.483,1.907.758,2.988.758h70.212c.411,0,.815-.161,1.117-.463l10.663-10.663v9.478c0,1.716-1.396,3.112-3.112,3.112ZM72.769,5.871c.094-.206.819-.71,2.015-.71s1.915.504,2.009.71v4.21h-4.024v-4.209Zm-24.783,0c.096-.207.822-.711,2.014-.711s1.919.504,2.015.711v4.209h-4.029v-4.209Zm2.014,14.066c.873,0,1.58-.707,1.58-1.58s-.708-1.58-1.58-1.58c-1.188,0-1.916-.505-2.014-.713v-2.823h21.623v2.849c0,2.158,2.273,3.848,5.175,3.848.873,0,1.58-.707,1.58-1.58s-.708-1.58-1.58-1.58c-1.191,0-1.918-.504-2.015-.712v-2.824h16.674c1.716,0,3.112,1.399,3.112,3.118v10.313H7.445v-10.313c0-1.719,1.399-3.118,3.118-3.118h9.484v2.849c0,2.158,2.273,3.848,5.175,3.848.873,0,1.58-.707,1.58-1.58s-.708-1.58-1.58-1.58c-1.188,0-1.916-.505-2.014-.713v-2.823h21.617v2.849c0,2.158,2.273,3.848,5.175,3.848Zm-13.153,28.692h8.041c.873,0,1.58-.707,1.58-1.58v-7.095c0-.873-.708-1.58-1.58-1.58h-8.041c-.873,0-1.58.707-1.58,1.58v7.095c0,.873.708,1.58,1.58,1.58Zm1.58-7.095h4.88v3.934h-4.88v-3.934Zm16.685,7.095h8.041c.873,0,1.58-.707,1.58-1.58v-7.095c0-.873-.708-1.58-1.58-1.58h-8.041c-.873,0-1.58.707-1.58,1.58v7.095c0,.873.708,1.58,1.58,1.58Zm1.58-7.095h4.88v3.934h-4.88v-3.934Zm-38.111,24.453h8.046c.873,0,1.58-.707,1.58-1.58v-7.089c0-.873-.708-1.58-1.58-1.58h-8.046c-.873,0-1.58.707-1.58,1.58v7.089c0,.873.708,1.58,1.58,1.58Zm1.58-7.089h4.886v3.929h-4.886v-3.929Zm16.685,7.089h8.041c.873,0,1.58-.707,1.58-1.58v-7.089c0-.873-.708-1.58-1.58-1.58h-8.041c-.873,0-1.58.707-1.58,1.58v7.089c0,.873.708,1.58,1.58,1.58Zm1.58-7.089h4.88v3.929h-4.88v-3.929Zm16.685,7.089h8.041c.873,0,1.58-.707,1.58-1.58v-7.089c0-.873-.708-1.58-1.58-1.58h-8.041c-.873,0-1.58.707-1.58,1.58v7.089c0,.873.708,1.58,1.58,1.58Zm1.58-7.089h4.88v3.929h-4.88v-3.929Zm-38.111,24.447h8.046c.873,0,1.58-.707,1.58-1.58v-7.089c0-.873-.708-1.58-1.58-1.58h-8.046c-.873,0-1.58.707-1.58,1.58v7.089c0,.873.708,1.58,1.58,1.58Zm1.58-7.089h4.886v3.929h-4.886v-3.929Zm16.685,7.089h8.041c.873,0,1.58-.707,1.58-1.58v-7.089c0-.873-.708-1.58-1.58-1.58h-8.041c-.873,0-1.58.707-1.58,1.58v7.089c0,.873.708,1.58,1.58,1.58Zm1.58-7.089h4.88v3.929h-4.88v-3.929Zm-19.846-27.628h8.046c.873,0,1.58-.707,1.58-1.58v-7.095c0-.873-.708-1.58-1.58-1.58h-8.046c-.873,0-1.58.707-1.58,1.58v7.095c0,.873.708,1.58,1.58,1.58Zm1.58-7.095h4.886v3.934h-4.886v-3.934Zm61.257,14.203h-8.041c-.873,0-1.58.707-1.58,1.58v7.089c0,.873.708,1.58,1.58,1.58h8.041c.873,0,1.58-.707,1.58-1.58v-7.089c0-.873-.708-1.58-1.58-1.58Zm-1.58,7.089h-4.88v-3.929h4.88v3.929Zm-24.726,20.519h8.041c.873,0,1.58-.707,1.58-1.58v-7.089c0-.873-.708-1.58-1.58-1.58h-8.041c-.873,0-1.58.707-1.58,1.58v7.089c0,.873.708,1.58,1.58,1.58Zm1.58-7.089h4.88v3.929h-4.88v-3.929Zm15.348-31.76c-.619-.615-.623-1.616-.008-2.235.615-.619,1.616-.623,2.235-.008l2.033,2.019,4.136-4.887c.564-.666,1.561-.749,2.227-.185.666.564.749,1.561.185,2.227l-5.241,6.193c-.285.337-.697.539-1.138.558-.023,0-.046.001-.068.001-.416,0-.817-.164-1.114-.459l-3.248-3.225Z"/><text x="0" y="115" fill="#000000" font-size="5px" font-weight="bold" font-family="'Helvetica Neue', Helvetica, Arial-Unicode, Arial, Sans-serif">Created by Hanzal Ziandru</text><text x="0" y="120" fill="#000000" font-size="5px" font-weight="bold" font-family="'Helvetica Neue', Helvetica, Arial-Unicode, Arial, Sans-serif">from the Noun Project</text></svg>