<svg xmlns="http://www.w3.org/2000/svg" xmlns:xlink="http://www.w3.org/1999/xlink" version="1.1" x="0px" y="0px" viewBox="0 0 100 125" enable-background="new 0 0 100 100" xml:space="preserve"><path d="M50,10.11c-21.996,0-39.891,17.895-39.891,39.89c0,21.997,17.895,39.891,39.891,39.891S89.891,71.996,89.891,50  C89.891,28.004,71.996,10.11,50,10.11z M77.804,74.205c-3.461-6.299-10.994-13.123-16.295-15.924  c-0.129,0.131-0.254,0.268-0.387,0.395c-3.141,3.033-7.09,4.703-11.122,4.703c-4.378,0-8.392-1.924-11.499-5.107  c-5.294,2.793-12.84,9.629-16.303,15.936C16.545,67.723,13.109,59.258,13.109,50c0-20.341,16.549-36.89,36.891-36.89  S86.891,29.659,86.891,50C86.891,59.256,83.456,67.721,77.804,74.205z M50,26.288c-8.011,0-14.507,5.761-14.507,15.622  c0,9.86,6.496,17.854,14.507,17.854c3.376,0,6.483-1.42,8.949-3.801c3.384-3.268,5.558-8.348,5.558-14.053  C64.507,32.048,58.013,26.288,50,26.288z"/><text x="0" y="115" fill="#000000" font-size="5px" font-weight="bold" font-family="'Helvetica Neue', Helvetica, Arial-Unicode, Arial, Sans-serif">Created by Chunk Icons</text><text x="0" y="120" fill="#000000" font-size="5px" font-weight="bold" font-family="'Helvetica Neue', Helvetica, Arial-Unicode, Arial, Sans-serif">from the Noun Project</text></svg>