<svg xmlns="http://www.w3.org/2000/svg">
  <defs>
        <symbol id="icon-calendar" viewBox="0 0 100 125"> 
            <path d="m25.222,2c-2.902,0-5.175,1.69-5.175,3.848v4.232h-9.484c-3.462,0-6.278,2.816-6.278,6.278v75.369c0,3.459,2.816,6.273,6.278,6.273h78.88c3.459,0,6.273-2.814,6.273-6.273V16.358c0-3.462-2.814-6.278-6.273-6.278h-9.49v-4.232c0-2.158-2.271-3.848-5.17-3.848s-5.175,1.69-5.175,3.848v4.232h-14.433v-4.232c0-2.158-2.273-3.848-5.175-3.848s-5.175,1.69-5.175,3.848v4.232h-14.428v-4.232c0-2.158-2.273-3.848-5.175-3.848Zm-2.014,3.872c.096-.207.822-.711,2.014-.711s1.919.504,2.015.711v4.209h-4.029v-4.209ZM7.445,29.832h85.11v47.022h-11.78c-.873,0-1.58.707-1.58,1.58v11.78H10.563c-1.719,0-3.118-1.399-3.118-3.118V29.832Zm82.875,50.183l-7.965,7.965v-7.965h7.965Zm-.877,14.825H10.563c-1.41,0-2.603-.938-2.988-2.222.889.483,1.907.758,2.988.758h70.212c.411,0,.815-.161,1.117-.463l10.663-10.663v9.478c0,1.716-1.396,3.112-3.112,3.112ZM72.769,5.871c.094-.206.819-.71,2.015-.71s1.915.504,2.009.71v4.21h-4.024v-4.209Zm-24.783,0c.096-.207.822-.711,2.014-.711s1.919.504,2.015.711v4.209h-4.029v-4.209Zm2.014,14.066c.873,0,1.58-.707,1.58-1.58s-.708-1.58-1.58-1.58c-1.188,0-1.916-.505-2.014-.713v-2.823h21.623v2.849c0,2.158,2.273,3.848,5.175,3.848.873,0,1.58-.707,1.58-1.58s-.708-1.58-1.58-1.58c-1.191,0-1.918-.504-2.015-.712v-2.824h16.674c1.716,0,3.112,1.399,3.112,3.118v10.313H7.445v-10.313c0-1.719,1.399-3.118,3.118-3.118h9.484v2.849c0,2.158,2.273,3.848,5.175,3.848.873,0,1.58-.707,1.58-1.58s-.708-1.58-1.58-1.58c-1.188,0-1.916-.505-2.014-.713v-2.823h21.617v2.849c0,2.158,2.273,3.848,5.175,3.848Zm-13.153,28.692h8.041c.873,0,1.58-.707,1.58-1.58v-7.095c0-.873-.708-1.58-1.58-1.58h-8.041c-.873,0-1.58.707-1.58,1.58v7.095c0,.873.708,1.58,1.58,1.58Zm1.58-7.095h4.88v3.934h-4.88v-3.934Zm16.685,7.095h8.041c.873,0,1.58-.707,1.58-1.58v-7.095c0-.873-.708-1.58-1.58-1.58h-8.041c-.873,0-1.58.707-1.58,1.58v7.095c0,.873.708,1.58,1.58,1.58Zm1.58-7.095h4.88v3.934h-4.88v-3.934Zm-38.111,24.453h8.046c.873,0,1.58-.707,1.58-1.58v-7.089c0-.873-.708-1.58-1.58-1.58h-8.046c-.873,0-1.58.707-1.58,1.58v7.089c0,.873.708,1.58,1.58,1.58Zm1.58-7.089h4.886v3.929h-4.886v-3.929Zm16.685,7.089h8.041c.873,0,1.58-.707,1.58-1.58v-7.089c0-.873-.708-1.58-1.58-1.58h-8.041c-.873,0-1.58.707-1.58,1.58v7.089c0,.873.708,1.58,1.58,1.58Zm1.58-7.089h4.88v3.929h-4.88v-3.929Zm16.685,7.089h8.041c.873,0,1.58-.707,1.58-1.58v-7.089c0-.873-.708-1.58-1.58-1.58h-8.041c-.873,0-1.58.707-1.58,1.58v7.089c0,.873.708,1.58,1.58,1.58Zm1.58-7.089h4.88v3.929h-4.88v-3.929Zm-38.111,24.447h8.046c.873,0,1.58-.707,1.58-1.58v-7.089c0-.873-.708-1.58-1.58-1.58h-8.046c-.873,0-1.58.707-1.58,1.58v7.089c0,.873.708,1.58,1.58,1.58Zm1.58-7.089h4.886v3.929h-4.886v-3.929Zm16.685,7.089h8.041c.873,0,1.58-.707,1.58-1.58v-7.089c0-.873-.708-1.58-1.58-1.58h-8.041c-.873,0-1.58.707-1.58,1.58v7.089c0,.873.708,1.58,1.58,1.58Zm1.58-7.089h4.88v3.929h-4.88v-3.929Zm-19.846-27.628h8.046c.873,0,1.58-.707,1.58-1.58v-7.095c0-.873-.708-1.58-1.58-1.58h-8.046c-.873,0-1.58.707-1.58,1.58v7.095c0,.873.708,1.58,1.58,1.58Zm1.58-7.095h4.886v3.934h-4.886v-3.934Zm61.257,14.203h-8.041c-.873,0-1.58.707-1.58,1.58v7.089c0,.873.708,1.58,1.58,1.58h8.041c.873,0,1.58-.707,1.58-1.58v-7.089c0-.873-.708-1.58-1.58-1.58Zm-1.58,7.089h-4.88v-3.929h4.88v3.929Zm-24.726,20.519h8.041c.873,0,1.58-.707,1.58-1.58v-7.089c0-.873-.708-1.58-1.58-1.58h-8.041c-.873,0-1.58.707-1.58,1.58v7.089c0,.873.708,1.58,1.58,1.58Zm1.58-7.089h4.88v3.929h-4.88v-3.929Zm15.348-31.76c-.619-.615-.623-1.616-.008-2.235.615-.619,1.616-.623,2.235-.008l2.033,2.019,4.136-4.887c.564-.666,1.561-.749,2.227-.185.666.564.749,1.561.185,2.227l-5.241,6.193c-.285.337-.697.539-1.138.558-.023,0-.046.001-.068.001-.416,0-.817-.164-1.114-.459l-3.248-3.225Z"/>  
        </symbol>
        <symbol id="icon-clock" viewBox="0 0 95 118.75"> 
            <path d="M47.5,1A46.5,46.5,0,1,0,94,47.5,46.553,46.553,0,0,0,47.5,1Zm0,87.188A40.688,40.688,0,1,1,88.187,47.5,40.735,40.735,0,0,1,47.5,88.188ZM44.815,10.132l.049-.094A2.906,2.906,0,0,1,50.031,12.7l-.048.094a2.907,2.907,0,1,1-5.168-2.662Zm41.4,38.646A2.9,2.9,0,0,1,82.3,50.031l-.094-.048a2.906,2.906,0,0,1,2.661-5.168l.094.049A2.906,2.906,0,0,1,86.214,48.778Zm-36.03,36.09-.048.094A2.906,2.906,0,0,1,44.969,82.3l.048-.094a2.906,2.906,0,1,1,5.167,2.662ZM14.047,48.932a2.906,2.906,0,0,1-3.915,1.253l-.094-.049A2.906,2.906,0,0,1,12.7,44.969l.094.048A2.907,2.907,0,0,1,14.047,48.932Zm39.8,1.02a7.015,7.015,0,0,0-1.607-7.407h0a6.985,6.985,0,0,0-2.018-1.408l.1-20.454a2.907,2.907,0,0,0-2.892-2.921h-.015a2.907,2.907,0,0,0-2.906,2.892l-.1,20.457a6.94,6.94,0,0,0-2.08,1.434,7.009,7.009,0,0,0,7.41,11.52L61.3,65.626a2.906,2.906,0,0,0,4.11-4.11Zm-7.407-1.607a1.2,1.2,0,1,1,.845.35A1.2,1.2,0,0,1,46.443,48.345Z"/>
        </symbol>
        <symbol id="icon-email" viewBox="0 0 95 118.75"> 
            <path d="M83.737,15.294H11.263A10.275,10.275,0,0,0,1,25.557V69.443A10.275,10.275,0,0,0,11.263,79.706H83.737A10.275,10.275,0,0,0,94,69.443V25.557A10.275,10.275,0,0,0,83.737,15.294Zm-22,31.566,26.395-22a4.411,4.411,0,0,1,.055.694V69.443c0,.02,0,.04,0,.06ZM6.814,69.5c0-.02,0-.04,0-.06V25.557a4.411,4.411,0,0,1,.055-.694l26.4,22Zm4.624-48.4H83.561L50.64,48.542a4.843,4.843,0,0,1-6.28,0Zm-.175,52.788a4.462,4.462,0,0,1-.593-.041L37.791,50.634l2.848,2.374a10.714,10.714,0,0,0,13.722,0l2.848-2.374L84.33,73.853a4.462,4.462,0,0,1-.593.041Z"/>
        </symbol>
        <symbol id="icon-homepage" viewBox="0 0 100 125"> 
            <path d="M89.7,53.8h-4.9V93c0,2.5-2,4.5-4.5,4.5H62.9c-1.5,0-2.8-1.3-2.8-2.8v-28c0-1.4-1.1-2.6-2.6-2.6h-15    c-1.4,0-2.6,1.1-2.6,2.6v28c0,1.5-1.3,2.8-2.8,2.8H19.7c-2.5,0-4.5-2-4.5-4.5V53.8h-4.9c-5.2,0-7.7-6.2-4.1-9.9L45.9,4.2    c2.3-2.3,5.9-2.3,8.2,0l39.7,39.7C97.4,47.5,94.9,53.8,89.7,53.8z"/>
        </symbol>
        <symbol id="icon-profile" viewBox="0 0 100 125"> 
            <path d="M50,5C25.2,5,5,25.1,5,50s20.2,45,45,45s45-20.1,45-45S74.8,5,50,5z M50,26.5c7.2,0,13.1,5.9,13.1,13.1   c0,7.2-5.9,13.1-13.1,13.1s-13.1-5.9-13.1-13.1C36.9,32.4,42.8,26.5,50,26.5z M50,87.9c-12.2,0-23.1-5.8-30.1-14.8   c5.7-10.7,17.1-18,30.1-18s24.4,7.3,30.1,18C73.2,82.1,62.2,87.9,50,87.9z"/>
        </symbol>
        <symbol id="icon-location" viewBox="0 0 95 118.75"> 
            <path d="M47.5,17.747A20.653,20.653,0,1,0,68.153,38.4,20.677,20.677,0,0,0,47.5,17.747Zm0,35.494A14.841,14.841,0,1,1,62.341,38.4,14.858,14.858,0,0,1,47.5,53.241ZM47.5,1A37.442,37.442,0,0,0,10.1,38.4c0,11.986,9.894,27.208,15.792,35.214a122.951,122.951,0,0,0,11.9,13.991C44.251,94,46.528,94,47.5,94s3.249,0,9.708-6.395a122.951,122.951,0,0,0,11.9-13.991C75.006,65.608,84.9,50.386,84.9,38.4A37.442,37.442,0,0,0,47.5,1ZM65.1,69.254C57.14,80.246,49.715,87.1,47.5,88.113c-2.215-1.018-9.64-7.867-17.595-18.859C21.012,56.967,15.912,45.721,15.912,38.4a31.588,31.588,0,0,1,63.176,0C79.088,45.721,73.988,56.967,65.1,69.254Z"/>
        </symbol>
        <symbol id="icon-logo" viewBox="0 0 1200 1171"> 
            <path d="M 347.934 6.009 C 257.392 10.904, 194.696 43.506, 152.759 107.500 C 138.882 128.676, 126.234 155.672, 116.686 184.500 C 111.201 201.060, 12.077 583.811, 8.563 602 C 1.523 638.436, 2.751 671.997, 12.099 698.688 C 30.076 750.020, 73.806 782.754, 138 792.933 C 161.256 796.621, 174.700 797, 282.200 797 C 339.840 797, 387 797.240, 387 797.533 C 387 798.569, 324.950 998.272, 324.285 999.378 C 323.913 999.995, 298.478 1037.751, 267.762 1083.279 C 237.046 1128.808, 211.660 1166.721, 211.350 1167.531 C 210.853 1168.826, 238.586 1168.974, 441.004 1168.752 L 671.224 1168.500 701.362 1071.264 L 731.500 974.028 796.943 974.014 C 833.326 974.006, 868.629 973.530, 876.443 972.941 C 993.131 964.152, 1059.117 913.117, 1097.466 802 C 1102.762 786.656, 1183.049 491.262, 1188.518 467 C 1194.706 439.551, 1196.304 408.262, 1192.579 387.500 C 1180.887 322.340, 1131.370 281.151, 1052 270.563 C 1028.894 267.480, 1010.385 267.020, 909.250 267.010 C 853.013 267.004, 807 266.680, 807 266.290 C 807 265.899, 811.480 246.212, 816.956 222.540 C 828.934 170.760, 829.991 164.586, 829.996 146.381 C 830.002 123.924, 826.141 107.144, 816.630 88.304 C 792.747 40.995, 742.200 13.200, 669 7.126 C 653.288 5.822, 369.642 4.835, 347.934 6.009 M 339 63.092 C 250.211 71.134, 201.260 110.611, 171.576 198.115 C 167.014 211.564, 67.855 593.038, 64.077 611.672 C 55.007 656.416, 62.092 688.922, 85.762 711.163 C 99.919 724.465, 118.067 732.349, 145.113 736.946 C 167.447 740.741, 189.380 741.161, 343.500 740.740 C 473.263 740.386, 491.966 740.144, 503 738.679 C 577.089 728.838, 620.679 700.375, 648.878 643.425 C 657.312 626.392, 661.055 615.465, 676.940 561.500 C 684.711 535.100, 691.265 512.938, 691.503 512.250 C 691.849 511.254, 663.236 511, 550.606 511 L 409.274 511 408.069 518.750 C 404.583 541.165, 398.106 557.652, 389.189 566.806 C 382.233 573.948, 377.198 576.258, 367.500 576.758 C 356.387 577.330, 355.754 576.738, 357.086 567 C 358.232 558.615, 371.074 505.730, 408.363 355.821 C 428.346 275.487, 434.359 252.710, 437.008 247.321 C 445.170 230.710, 462.140 221.271, 474.532 226.449 C 476.439 227.246, 478 228.573, 478 229.398 C 478 230.529, 468.356 273.319, 463.497 293.750 L 462.962 296 602.391 296 L 741.821 296 743.866 287.250 C 744.991 282.438, 750.455 259.150, 756.009 235.500 C 771.229 170.690, 773.136 161.540, 773.729 150.459 C 775.927 109.370, 747.722 79.148, 696.897 68.137 C 670.497 62.417, 678.048 62.643, 506.500 62.429 C 419.600 62.321, 344.225 62.619, 339 63.092 M 524 324.322 C 524 324.499, 530.731 342.919, 538.959 365.255 L 553.917 405.866 542.462 444.683 C 536.161 466.032, 531.005 484.056, 531.003 484.735 C 531.001 485.708, 564.089 486.026, 687.250 486.235 C 863.335 486.534, 849.262 485.852, 849.799 494.111 C 849.963 496.639, 849.185 503.160, 848.069 508.603 C 844.629 525.389, 788.456 717.238, 782.908 731.149 C 777.299 745.216, 773.024 751.214, 767.201 753.188 C 764.313 754.166, 730.076 754.510, 611.443 754.752 L 459.386 755.061 417.787 889.280 L 376.188 1023.500 346.510 1067.500 C 330.188 1091.700, 316.619 1111.838, 316.357 1112.250 C 316.096 1112.662, 386.446 1112.994, 472.691 1112.988 L 629.500 1112.975 657.464 1022.738 C 672.844 973.107, 686.524 928.970, 687.864 924.656 L 690.300 916.813 767.400 917.514 C 846.792 918.236, 870.911 917.651, 894.297 914.438 C 973.063 903.614, 1015.869 866.047, 1044.633 782.500 C 1048.743 770.562, 1126.938 482.259, 1132.440 458.755 C 1137.019 439.200, 1138.271 427.912, 1137.731 411.060 C 1137.352 399.240, 1136.717 393.738, 1135.091 388.171 C 1128.794 366.622, 1114.829 350.777, 1092.638 340.005 C 1076.476 332.159, 1056.668 327.350, 1031 325.041 C 1020.667 324.112, 524 323.407, 524 324.322" stroke="none" fill="#0c4434" fill-rule="evenodd"/><path d="M 339 63.092 C 250.211 71.134, 201.260 110.611, 171.576 198.115 C 167.014 211.564, 67.855 593.038, 64.077 611.672 C 55.007 656.416, 62.092 688.922, 85.762 711.163 C 99.919 724.465, 118.067 732.349, 145.113 736.946 C 167.447 740.741, 189.380 741.161, 343.500 740.740 C 473.263 740.386, 491.966 740.144, 503 738.679 C 577.089 728.838, 620.679 700.375, 648.878 643.425 C 657.312 626.392, 661.055 615.465, 676.940 561.500 C 684.711 535.100, 691.265 512.938, 691.503 512.250 C 691.849 511.254, 663.236 511, 550.606 511 L 409.274 511 408.069 518.750 C 404.583 541.165, 398.106 557.652, 389.189 566.806 C 382.233 573.948, 377.198 576.258, 367.500 576.758 C 356.387 577.330, 355.754 576.738, 357.086 567 C 358.232 558.615, 371.074 505.730, 408.363 355.821 C 428.346 275.487, 434.359 252.710, 437.008 247.321 C 445.170 230.710, 462.140 221.271, 474.532 226.449 C 476.439 227.246, 478 228.573, 478 229.398 C 478 230.529, 468.356 273.319, 463.497 293.750 L 462.962 296 602.391 296 L 741.821 296 743.866 287.250 C 744.991 282.438, 750.455 259.150, 756.009 235.500 C 771.229 170.690, 773.136 161.540, 773.729 150.459 C 775.927 109.370, 747.722 79.148, 696.897 68.137 C 670.497 62.417, 678.048 62.643, 506.500 62.429 C 419.600 62.321, 344.225 62.619, 339 63.092 M 524 324.322 C 524 324.499, 530.731 342.919, 538.959 365.255 L 553.917 405.866 542.462 444.683 C 536.161 466.032, 531.005 484.056, 531.003 484.735 C 531.001 485.708, 564.089 486.026, 687.250 486.235 C 863.335 486.534, 849.262 485.852, 849.799 494.111 C 849.963 496.639, 849.185 503.160, 848.069 508.603 C 844.629 525.389, 788.456 717.238, 782.908 731.149 C 777.299 745.216, 773.024 751.214, 767.201 753.188 C 764.313 754.166, 730.076 754.510, 611.443 754.752 L 459.386 755.061 417.787 889.280 L 376.188 1023.500 346.510 1067.500 C 330.188 1091.700, 316.619 1111.838, 316.357 1112.250 C 316.096 1112.662, 386.446 1112.994, 472.691 1112.988 L 629.500 1112.975 657.464 1022.738 C 672.844 973.107, 686.524 928.970, 687.864 924.656 L 690.300 916.813 767.400 917.514 C 846.792 918.236, 870.911 917.651, 894.297 914.438 C 973.063 903.614, 1015.869 866.047, 1044.633 782.500 C 1048.743 770.562, 1126.938 482.259, 1132.440 458.755 C 1137.019 439.200, 1138.271 427.912, 1137.731 411.060 C 1137.352 399.240, 1136.717 393.738, 1135.091 388.171 C 1128.794 366.622, 1114.829 350.777, 1092.638 340.005 C 1076.476 332.159, 1056.668 327.350, 1031 325.041 C 1020.667 324.112, 524 323.407, 524 324.322"/>
        </symbol>
        <symbol id="password-visble" viewBox="0 0 64 80">
            <path d="M32,50C17.1,50,9,41.7,5.5,36.8c-1.9-2.7-2-6.2-0.1-8.9C8.8,22.7,16.9,14,32,14c10.6-0.2,20.6,5,26.6,13.8   c1.9,2.7,1.8,6.3-0.1,9C55,41.7,46.9,50,32,50z M32,20c-12.4,0-18.9,7-21.7,11.2c-0.4,0.6-0.4,1.5,0,2.1C13.2,37.3,19.8,44,32,44   c12.2,0,18.8-6.7,21.6-10.7c0.5-0.6,0.5-1.5,0-2.1C48.8,24,40.7,19.8,32,20z"/><path d="M39,32c0,3.9-3.1,7-7,7s-7-3.1-7-7s3.1-7,7-7S39,28.1,39,32z"/>
        </symbol> 
        <symbol id="password-hidden" viewBox="0 0 64 80"> 
            <path d="M58.6,27.8c-2.4-3.6-5.6-6.6-9.2-8.9l8.7-8.7C59.3,8.9,59.2,7,58,5.9c-1.2-1.1-3-1.1-4.2,0L43.7,16C40,14.7,36,14,32,14   C16.9,14,8.8,22.7,5.3,27.8c-1.8,2.7-1.8,6.3,0.1,8.9c2.4,3.4,5.5,6.3,9.1,8.5l-8.6,8.6c-1.2,1.2-1.2,3.1-0.1,4.2s3.1,1.2,4.2,0.1   c0,0,0,0,0.1-0.1L20.2,48C24,49.4,28,50,32,50c14.9,0,23-8.3,26.5-13.2C60.4,34.1,60.5,30.5,58.6,27.8z M10.3,33.3   c-0.5-0.6-0.5-1.5,0-2.1C13.1,27,19.6,20,32,20c2.3,0,4.7,0.3,6.9,0.8l-4.6,4.6c-3.6-1.3-7.6,0.6-8.9,4.2c-0.5,1.5-0.5,3.2,0,4.7   l-6.5,6.5C15.5,39,12.6,36.4,10.3,33.3L10.3,33.3z M53.6,33.3C50.8,37.3,44.2,44,32,44c-2.3,0-4.7-0.3-6.9-0.8l4.6-4.6   c3.6,1.3,7.6-0.6,8.9-4.2c0.5-1.5,0.5-3.2,0-4.7l6.4-6.4c3.5,2,6.4,4.7,8.7,7.9C54.1,31.8,54.1,32.7,53.6,33.3L53.6,33.3z"/>
        </symbol>
        <symbol id="icon-lock" viewBox="0 0 100 125"> 
            <path d="M82.287,51.949c-0.112-1.26-1.008-2.506-2.169-2.965c-1.323-0.524-2.657-1.009-3.998-1.462V31.944  C76.118,17.539,64.402,5.823,50,5.823c-14.404,0-26.12,11.716-26.12,26.121v15.577c-1.341,0.453-2.675,0.938-3.998,1.462  c-1.163,0.462-2.058,1.706-2.17,2.965H17.7v0.265v0.502v32.481c0,1.348,0.939,2.738,2.181,3.231  c9.628,3.814,19.762,5.75,30.119,5.75c10.355,0,20.489-1.936,30.116-5.75c1.245-0.495,2.182-1.883,2.182-3.231V52.716v-0.502v-0.265  H82.287z M53.558,67.603v11.763c0,1.964-1.592,3.555-3.559,3.555c-1.965,0-3.557-1.591-3.557-3.555V67.603  c-2.086-1.235-3.557-3.416-3.557-6.021c0-3.931,3.185-7.113,7.113-7.113c3.93,0,7.115,3.18,7.115,7.113  C57.114,64.187,55.644,66.368,53.558,67.603z M67.137,45.045c-5.61-1.204-11.339-1.812-17.139-1.812  c-5.799,0-11.528,0.608-17.138,1.812V31.944c0-9.451,7.687-17.141,17.137-17.141c9.452,0,17.14,7.69,17.14,17.141V45.045z"/>
        </symbol>
        <symbol id="icon-404" viewBox="0 0 66 82.5"> 
            <path d="M60,1.2H6c-2.62,0-4.75,2.13-4.75,4.75v42.62c0,2.62,2.13,4.75,4.75,4.75h12.17c0.41,0,0.75-0.34,0.75-0.75  s-0.34-0.75-0.75-0.75H6c-1.79,0-3.25-1.46-3.25-3.25V13.09h60.5v35.48c0,1.79-1.46,3.25-3.25,3.25H47.83  c-0.41,0-0.75,0.34-0.75,0.75s0.34,0.75,0.75,0.75H60c2.62,0,4.75-2.13,4.75-4.75V5.95C64.75,3.33,62.62,1.2,60,1.2z M2.75,11.59  V5.95C2.75,4.16,4.21,2.7,6,2.7h54c1.79,0,3.25,1.46,3.25,3.25v5.64H2.75z"/><path d="M9.36,4.9c-1.24,0-2.25,1.01-2.25,2.25S8.12,9.4,9.36,9.4s2.25-1.01,2.25-2.25S10.6,4.9,9.36,4.9z M9.36,7.9  c-0.41,0-0.75-0.34-0.75-0.75S8.95,6.4,9.36,6.4s0.75,0.34,0.75,0.75S9.77,7.9,9.36,7.9z"/><path d="M15.02,4.9c-1.24,0-2.25,1.01-2.25,2.25s1.01,2.25,2.25,2.25s2.25-1.01,2.25-2.25S16.27,4.9,15.02,4.9z M15.02,7.9  c-0.41,0-0.75-0.34-0.75-0.75s0.34-0.75,0.75-0.75s0.75,0.34,0.75,0.75S15.44,7.9,15.02,7.9z"/><path d="M20.69,4.9c-1.24,0-2.25,1.01-2.25,2.25s1.01,2.25,2.25,2.25s2.25-1.01,2.25-2.25S21.93,4.9,20.69,4.9z M20.69,7.9  c-0.41,0-0.75-0.34-0.75-0.75s0.34-0.75,0.75-0.75s0.75,0.34,0.75,0.75S21.1,7.9,20.69,7.9z"/><path d="M36.47,37.92c-0.74-1.23-2.03-1.97-3.47-1.97s-2.73,0.74-3.47,1.97L17.14,58.69c-0.75,1.26-0.77,2.78-0.04,4.06  c0.73,1.28,2.04,2.04,3.51,2.04h24.79c1.47,0,2.79-0.76,3.51-2.04c0.73-1.28,0.71-2.8-0.04-4.06L36.47,37.92z M47.6,62.01  c-0.46,0.81-1.28,1.29-2.21,1.29H20.61c-0.93,0-1.75-0.48-2.21-1.29c-0.46-0.8-0.45-1.76,0.03-2.55l12.39-20.77  c0.46-0.77,1.28-1.24,2.18-1.24s1.72,0.46,2.18,1.24l12.39,20.77C48.05,60.25,48.06,61.21,47.6,62.01z"/><path d="M30.77,42.35c-0.59,0.62-0.89,1.43-0.84,2.29l0.58,9.22c0.07,1.33,1.17,2.37,2.5,2.37c1.33,0,2.43-1.04,2.5-2.37l0.58-9.23  c0.04-0.85-0.26-1.66-0.84-2.28C34.06,41.11,31.94,41.11,30.77,42.35z M34,53.78c-0.03,0.53-0.47,0.95-1,0.95s-0.97-0.42-1-0.96  l-0.58-9.22c-0.02-0.44,0.13-0.85,0.43-1.17s0.71-0.49,1.15-0.49s0.84,0.17,1.15,0.49s0.46,0.73,0.43,1.16L34,53.78z"/><path d="M33,56.74c-1.33,0-2.41,1.08-2.41,2.41s1.08,2.41,2.41,2.41s2.41-1.08,2.41-2.41S34.33,56.74,33,56.74z M33,60.07  c-0.5,0-0.91-0.41-0.91-0.91s0.41-0.91,0.91-0.91s0.91,0.41,0.91,0.91S33.5,60.07,33,60.07z"/><path d="M22.94,34.05c0.41,0,0.75-0.34,0.75-0.75V28.6h1.94c0.41,0,0.75-0.34,0.75-0.75s-0.34-0.75-0.75-0.75h-1.94v-7.48  c0-0.32-0.2-0.6-0.5-0.71c-0.3-0.11-0.63-0.02-0.83,0.23l-6.81,8.23c-0.19,0.22-0.22,0.53-0.1,0.8c0.12,0.26,0.39,0.43,0.68,0.43  h6.06v4.69C22.19,33.71,22.53,34.05,22.94,34.05z M22.19,21.7v5.4h-4.47L22.19,21.7z"/><path d="M47.43,18.91c-0.3-0.11-0.63-0.02-0.83,0.23l-6.81,8.23c-0.19,0.22-0.22,0.53-0.1,0.8c0.12,0.26,0.39,0.43,0.68,0.43h6.06  v4.69c0,0.41,0.34,0.75,0.75,0.75s0.75-0.34,0.75-0.75V28.6h1.94c0.41,0,0.75-0.34,0.75-0.75s-0.34-0.75-0.75-0.75h-1.94v-7.48  C47.93,19.3,47.73,19.02,47.43,18.91z M46.43,21.7v5.4h-4.47L46.43,21.7z"/><path d="M28.72,23.15v6.62c0,2.36,1.92,4.28,4.28,4.28s4.28-1.92,4.28-4.28v-6.62c0-2.36-1.92-4.28-4.28-4.28  S28.72,20.79,28.72,23.15z M35.78,23.15v6.62c0,1.53-1.25,2.78-2.78,2.78s-2.78-1.25-2.78-2.78v-6.62c0-1.53,1.25-2.78,2.78-2.78  S35.78,21.61,35.78,23.15z"/><path d="M45.44,49.32H60c0.41,0,0.75-0.34,0.75-0.75V16.34c0-0.41-0.34-0.75-0.75-0.75H6c-0.41,0-0.75,0.34-0.75,0.75v32.23  c0,0.41,0.34,0.75,0.75,0.75h14.56c0.41,0,0.75-0.34,0.75-0.75s-0.34-0.75-0.75-0.75H6.75V17.09h52.5v30.73H45.44  c-0.41,0-0.75,0.34-0.75,0.75S45.03,49.32,45.44,49.32z"/>
        </symbol>
</svg>