<svg xmlns="http://www.w3.org/2000/svg">
  <defs>
        <symbol id="icon-calendar" viewBox="0 0 100 125"> 
            <path d="m25.222,2c-2.902,0-5.175,1.69-5.175,3.848v4.232h-9.484c-3.462,0-6.278,2.816-6.278,6.278v75.369c0,3.459,2.816,6.273,6.278,6.273h78.88c3.459,0,6.273-2.814,6.273-6.273V16.358c0-3.462-2.814-6.278-6.273-6.278h-9.49v-4.232c0-2.158-2.271-3.848-5.17-3.848s-5.175,1.69-5.175,3.848v4.232h-14.433v-4.232c0-2.158-2.273-3.848-5.175-3.848s-5.175,1.69-5.175,3.848v4.232h-14.428v-4.232c0-2.158-2.273-3.848-5.175-3.848Zm-2.014,3.872c.096-.207.822-.711,2.014-.711s1.919.504,2.015.711v4.209h-4.029v-4.209ZM7.445,29.832h85.11v47.022h-11.78c-.873,0-1.58.707-1.58,1.58v11.78H10.563c-1.719,0-3.118-1.399-3.118-3.118V29.832Zm82.875,50.183l-7.965,7.965v-7.965h7.965Zm-.877,14.825H10.563c-1.41,0-2.603-.938-2.988-2.222.889.483,1.907.758,2.988.758h70.212c.411,0,.815-.161,1.117-.463l10.663-10.663v9.478c0,1.716-1.396,3.112-3.112,3.112ZM72.769,5.871c.094-.206.819-.71,2.015-.71s1.915.504,2.009.71v4.21h-4.024v-4.209Zm-24.783,0c.096-.207.822-.711,2.014-.711s1.919.504,2.015.711v4.209h-4.029v-4.209Zm2.014,14.066c.873,0,1.58-.707,1.58-1.58s-.708-1.58-1.58-1.58c-1.188,0-1.916-.505-2.014-.713v-2.823h21.623v2.849c0,2.158,2.273,3.848,5.175,3.848.873,0,1.58-.707,1.58-1.58s-.708-1.58-1.58-1.58c-1.191,0-1.918-.504-2.015-.712v-2.824h16.674c1.716,0,3.112,1.399,3.112,3.118v10.313H7.445v-10.313c0-1.719,1.399-3.118,3.118-3.118h9.484v2.849c0,2.158,2.273,3.848,5.175,3.848.873,0,1.58-.707,1.58-1.58s-.708-1.58-1.58-1.58c-1.188,0-1.916-.505-2.014-.713v-2.823h21.617v2.849c0,2.158,2.273,3.848,5.175,3.848Zm-13.153,28.692h8.041c.873,0,1.58-.707,1.58-1.58v-7.095c0-.873-.708-1.58-1.58-1.58h-8.041c-.873,0-1.58.707-1.58,1.58v7.095c0,.873.708,1.58,1.58,1.58Zm1.58-7.095h4.88v3.934h-4.88v-3.934Zm16.685,7.095h8.041c.873,0,1.58-.707,1.58-1.58v-7.095c0-.873-.708-1.58-1.58-1.58h-8.041c-.873,0-1.58.707-1.58,1.58v7.095c0,.873.708,1.58,1.58,1.58Zm1.58-7.095h4.88v3.934h-4.88v-3.934Zm-38.111,24.453h8.046c.873,0,1.58-.707,1.58-1.58v-7.089c0-.873-.708-1.58-1.58-1.58h-8.046c-.873,0-1.58.707-1.58,1.58v7.089c0,.873.708,1.58,1.58,1.58Zm1.58-7.089h4.886v3.929h-4.886v-3.929Zm16.685,7.089h8.041c.873,0,1.58-.707,1.58-1.58v-7.089c0-.873-.708-1.58-1.58-1.58h-8.041c-.873,0-1.58.707-1.58,1.58v7.089c0,.873.708,1.58,1.58,1.58Zm1.58-7.089h4.88v3.929h-4.88v-3.929Zm16.685,7.089h8.041c.873,0,1.58-.707,1.58-1.58v-7.089c0-.873-.708-1.58-1.58-1.58h-8.041c-.873,0-1.58.707-1.58,1.58v7.089c0,.873.708,1.58,1.58,1.58Zm1.58-7.089h4.88v3.929h-4.88v-3.929Zm-38.111,24.447h8.046c.873,0,1.58-.707,1.58-1.58v-7.089c0-.873-.708-1.58-1.58-1.58h-8.046c-.873,0-1.58.707-1.58,1.58v7.089c0,.873.708,1.58,1.58,1.58Zm1.58-7.089h4.886v3.929h-4.886v-3.929Zm16.685,7.089h8.041c.873,0,1.58-.707,1.58-1.58v-7.089c0-.873-.708-1.58-1.58-1.58h-8.041c-.873,0-1.58.707-1.58,1.58v7.089c0,.873.708,1.58,1.58,1.58Zm1.58-7.089h4.88v3.929h-4.88v-3.929Zm-19.846-27.628h8.046c.873,0,1.58-.707,1.58-1.58v-7.095c0-.873-.708-1.58-1.58-1.58h-8.046c-.873,0-1.58.707-1.58,1.58v7.095c0,.873.708,1.58,1.58,1.58Zm1.58-7.095h4.886v3.934h-4.886v-3.934Zm61.257,14.203h-8.041c-.873,0-1.58.707-1.58,1.58v7.089c0,.873.708,1.58,1.58,1.58h8.041c.873,0,1.58-.707,1.58-1.58v-7.089c0-.873-.708-1.58-1.58-1.58Zm-1.58,7.089h-4.88v-3.929h4.88v3.929Zm-24.726,20.519h8.041c.873,0,1.58-.707,1.58-1.58v-7.089c0-.873-.708-1.58-1.58-1.58h-8.041c-.873,0-1.58.707-1.58,1.58v7.089c0,.873.708,1.58,1.58,1.58Zm1.58-7.089h4.88v3.929h-4.88v-3.929Zm15.348-31.76c-.619-.615-.623-1.616-.008-2.235.615-.619,1.616-.623,2.235-.008l2.033,2.019,4.136-4.887c.564-.666,1.561-.749,2.227-.185.666.564.749,1.561.185,2.227l-5.241,6.193c-.285.337-.697.539-1.138.558-.023,0-.046.001-.068.001-.416,0-.817-.164-1.114-.459l-3.248-3.225Z"/>  
        </symbol>
        <symbol id="icon-clock" viewBox="0 0 95 118.75"> 
            <path d="M47.5,1A46.5,46.5,0,1,0,94,47.5,46.553,46.553,0,0,0,47.5,1Zm0,87.188A40.688,40.688,0,1,1,88.187,47.5,40.735,40.735,0,0,1,47.5,88.188ZM44.815,10.132l.049-.094A2.906,2.906,0,0,1,50.031,12.7l-.048.094a2.907,2.907,0,1,1-5.168-2.662Zm41.4,38.646A2.9,2.9,0,0,1,82.3,50.031l-.094-.048a2.906,2.906,0,0,1,2.661-5.168l.094.049A2.906,2.906,0,0,1,86.214,48.778Zm-36.03,36.09-.048.094A2.906,2.906,0,0,1,44.969,82.3l.048-.094a2.906,2.906,0,1,1,5.167,2.662ZM14.047,48.932a2.906,2.906,0,0,1-3.915,1.253l-.094-.049A2.906,2.906,0,0,1,12.7,44.969l.094.048A2.907,2.907,0,0,1,14.047,48.932Zm39.8,1.02a7.015,7.015,0,0,0-1.607-7.407h0a6.985,6.985,0,0,0-2.018-1.408l.1-20.454a2.907,2.907,0,0,0-2.892-2.921h-.015a2.907,2.907,0,0,0-2.906,2.892l-.1,20.457a6.94,6.94,0,0,0-2.08,1.434,7.009,7.009,0,0,0,7.41,11.52L61.3,65.626a2.906,2.906,0,0,0,4.11-4.11Zm-7.407-1.607a1.2,1.2,0,1,1,.845.35A1.2,1.2,0,0,1,46.443,48.345Z"/>
        </symbol>
        <symbol id="icon-email" viewBox="0 0 95 118.75"> 
            <path d="M83.737,15.294H11.263A10.275,10.275,0,0,0,1,25.557V69.443A10.275,10.275,0,0,0,11.263,79.706H83.737A10.275,10.275,0,0,0,94,69.443V25.557A10.275,10.275,0,0,0,83.737,15.294Zm-22,31.566,26.395-22a4.411,4.411,0,0,1,.055.694V69.443c0,.02,0,.04,0,.06ZM6.814,69.5c0-.02,0-.04,0-.06V25.557a4.411,4.411,0,0,1,.055-.694l26.4,22Zm4.624-48.4H83.561L50.64,48.542a4.843,4.843,0,0,1-6.28,0Zm-.175,52.788a4.462,4.462,0,0,1-.593-.041L37.791,50.634l2.848,2.374a10.714,10.714,0,0,0,13.722,0l2.848-2.374L84.33,73.853a4.462,4.462,0,0,1-.593.041Z"/>
        </symbol>
        <symbol id="icon-homepage" viewBox="0 0 100 125"> 
            <path d="M89.7,53.8h-4.9V93c0,2.5-2,4.5-4.5,4.5H62.9c-1.5,0-2.8-1.3-2.8-2.8v-28c0-1.4-1.1-2.6-2.6-2.6h-15    c-1.4,0-2.6,1.1-2.6,2.6v28c0,1.5-1.3,2.8-2.8,2.8H19.7c-2.5,0-4.5-2-4.5-4.5V53.8h-4.9c-5.2,0-7.7-6.2-4.1-9.9L45.9,4.2    c2.3-2.3,5.9-2.3,8.2,0l39.7,39.7C97.4,47.5,94.9,53.8,89.7,53.8z"/>
        </symbol>
        <symbol id="icon-profile" viewBox="0 0 100 125"> 
            <path d="M50,5C25.2,5,5,25.1,5,50s20.2,45,45,45s45-20.1,45-45S74.8,5,50,5z M50,26.5c7.2,0,13.1,5.9,13.1,13.1   c0,7.2-5.9,13.1-13.1,13.1s-13.1-5.9-13.1-13.1C36.9,32.4,42.8,26.5,50,26.5z M50,87.9c-12.2,0-23.1-5.8-30.1-14.8   c5.7-10.7,17.1-18,30.1-18s24.4,7.3,30.1,18C73.2,82.1,62.2,87.9,50,87.9z"/>
        </symbol>
        <symbol id="icon-location" viewBox="0 0 95 118.75"> 
            <path d="M47.5,17.747A20.653,20.653,0,1,0,68.153,38.4,20.677,20.677,0,0,0,47.5,17.747Zm0,35.494A14.841,14.841,0,1,1,62.341,38.4,14.858,14.858,0,0,1,47.5,53.241ZM47.5,1A37.442,37.442,0,0,0,10.1,38.4c0,11.986,9.894,27.208,15.792,35.214a122.951,122.951,0,0,0,11.9,13.991C44.251,94,46.528,94,47.5,94s3.249,0,9.708-6.395a122.951,122.951,0,0,0,11.9-13.991C75.006,65.608,84.9,50.386,84.9,38.4A37.442,37.442,0,0,0,47.5,1ZM65.1,69.254C57.14,80.246,49.715,87.1,47.5,88.113c-2.215-1.018-9.64-7.867-17.595-18.859C21.012,56.967,15.912,45.721,15.912,38.4a31.588,31.588,0,0,1,63.176,0C79.088,45.721,73.988,56.967,65.1,69.254Z"/>
        </symbol>
        <symbol id="icon-logo" viewBox="0 0 1200 1171"> 
            <path d="M 347.934 6.009 C 257.392 10.904, 194.696 43.506, 152.759 107.500 C 138.882 128.676, 126.234 155.672, 116.686 184.500 C 111.201 201.060, 12.077 583.811, 8.563 602 C 1.523 638.436, 2.751 671.997, 12.099 698.688 C 30.076 750.020, 73.806 782.754, 138 792.933 C 161.256 796.621, 174.700 797, 282.200 797 C 339.840 797, 387 797.240, 387 797.533 C 387 798.569, 324.950 998.272, 324.285 999.378 C 323.913 999.995, 298.478 1037.751, 267.762 1083.279 C 237.046 1128.808, 211.660 1166.721, 211.350 1167.531 C 210.853 1168.826, 238.586 1168.974, 441.004 1168.752 L 671.224 1168.500 701.362 1071.264 L 731.500 974.028 796.943 974.014 C 833.326 974.006, 868.629 973.530, 876.443 972.941 C 993.131 964.152, 1059.117 913.117, 1097.466 802 C 1102.762 786.656, 1183.049 491.262, 1188.518 467 C 1194.706 439.551, 1196.304 408.262, 1192.579 387.500 C 1180.887 322.340, 1131.370 281.151, 1052 270.563 C 1028.894 267.480, 1010.385 267.020, 909.250 267.010 C 853.013 267.004, 807 266.680, 807 266.290 C 807 265.899, 811.480 246.212, 816.956 222.540 C 828.934 170.760, 829.991 164.586, 829.996 146.381 C 830.002 123.924, 826.141 107.144, 816.630 88.304 C 792.747 40.995, 742.200 13.200, 669 7.126 C 653.288 5.822, 369.642 4.835, 347.934 6.009 M 339 63.092 C 250.211 71.134, 201.260 110.611, 171.576 198.115 C 167.014 211.564, 67.855 593.038, 64.077 611.672 C 55.007 656.416, 62.092 688.922, 85.762 711.163 C 99.919 724.465, 118.067 732.349, 145.113 736.946 C 167.447 740.741, 189.380 741.161, 343.500 740.740 C 473.263 740.386, 491.966 740.144, 503 738.679 C 577.089 728.838, 620.679 700.375, 648.878 643.425 C 657.312 626.392, 661.055 615.465, 676.940 561.500 C 684.711 535.100, 691.265 512.938, 691.503 512.250 C 691.849 511.254, 663.236 511, 550.606 511 L 409.274 511 408.069 518.750 C 404.583 541.165, 398.106 557.652, 389.189 566.806 C 382.233 573.948, 377.198 576.258, 367.500 576.758 C 356.387 577.330, 355.754 576.738, 357.086 567 C 358.232 558.615, 371.074 505.730, 408.363 355.821 C 428.346 275.487, 434.359 252.710, 437.008 247.321 C 445.170 230.710, 462.140 221.271, 474.532 226.449 C 476.439 227.246, 478 228.573, 478 229.398 C 478 230.529, 468.356 273.319, 463.497 293.750 L 462.962 296 602.391 296 L 741.821 296 743.866 287.250 C 744.991 282.438, 750.455 259.150, 756.009 235.500 C 771.229 170.690, 773.136 161.540, 773.729 150.459 C 775.927 109.370, 747.722 79.148, 696.897 68.137 C 670.497 62.417, 678.048 62.643, 506.500 62.429 C 419.600 62.321, 344.225 62.619, 339 63.092 M 524 324.322 C 524 324.499, 530.731 342.919, 538.959 365.255 L 553.917 405.866 542.462 444.683 C 536.161 466.032, 531.005 484.056, 531.003 484.735 C 531.001 485.708, 564.089 486.026, 687.250 486.235 C 863.335 486.534, 849.262 485.852, 849.799 494.111 C 849.963 496.639, 849.185 503.160, 848.069 508.603 C 844.629 525.389, 788.456 717.238, 782.908 731.149 C 777.299 745.216, 773.024 751.214, 767.201 753.188 C 764.313 754.166, 730.076 754.510, 611.443 754.752 L 459.386 755.061 417.787 889.280 L 376.188 1023.500 346.510 1067.500 C 330.188 1091.700, 316.619 1111.838, 316.357 1112.250 C 316.096 1112.662, 386.446 1112.994, 472.691 1112.988 L 629.500 1112.975 657.464 1022.738 C 672.844 973.107, 686.524 928.970, 687.864 924.656 L 690.300 916.813 767.400 917.514 C 846.792 918.236, 870.911 917.651, 894.297 914.438 C 973.063 903.614, 1015.869 866.047, 1044.633 782.500 C 1048.743 770.562, 1126.938 482.259, 1132.440 458.755 C 1137.019 439.200, 1138.271 427.912, 1137.731 411.060 C 1137.352 399.240, 1136.717 393.738, 1135.091 388.171 C 1128.794 366.622, 1114.829 350.777, 1092.638 340.005 C 1076.476 332.159, 1056.668 327.350, 1031 325.041 C 1020.667 324.112, 524 323.407, 524 324.322" stroke="none" fill="#0c4434" fill-rule="evenodd"/><path d="M 339 63.092 C 250.211 71.134, 201.260 110.611, 171.576 198.115 C 167.014 211.564, 67.855 593.038, 64.077 611.672 C 55.007 656.416, 62.092 688.922, 85.762 711.163 C 99.919 724.465, 118.067 732.349, 145.113 736.946 C 167.447 740.741, 189.380 741.161, 343.500 740.740 C 473.263 740.386, 491.966 740.144, 503 738.679 C 577.089 728.838, 620.679 700.375, 648.878 643.425 C 657.312 626.392, 661.055 615.465, 676.940 561.500 C 684.711 535.100, 691.265 512.938, 691.503 512.250 C 691.849 511.254, 663.236 511, 550.606 511 L 409.274 511 408.069 518.750 C 404.583 541.165, 398.106 557.652, 389.189 566.806 C 382.233 573.948, 377.198 576.258, 367.500 576.758 C 356.387 577.330, 355.754 576.738, 357.086 567 C 358.232 558.615, 371.074 505.730, 408.363 355.821 C 428.346 275.487, 434.359 252.710, 437.008 247.321 C 445.170 230.710, 462.140 221.271, 474.532 226.449 C 476.439 227.246, 478 228.573, 478 229.398 C 478 230.529, 468.356 273.319, 463.497 293.750 L 462.962 296 602.391 296 L 741.821 296 743.866 287.250 C 744.991 282.438, 750.455 259.150, 756.009 235.500 C 771.229 170.690, 773.136 161.540, 773.729 150.459 C 775.927 109.370, 747.722 79.148, 696.897 68.137 C 670.497 62.417, 678.048 62.643, 506.500 62.429 C 419.600 62.321, 344.225 62.619, 339 63.092 M 524 324.322 C 524 324.499, 530.731 342.919, 538.959 365.255 L 553.917 405.866 542.462 444.683 C 536.161 466.032, 531.005 484.056, 531.003 484.735 C 531.001 485.708, 564.089 486.026, 687.250 486.235 C 863.335 486.534, 849.262 485.852, 849.799 494.111 C 849.963 496.639, 849.185 503.160, 848.069 508.603 C 844.629 525.389, 788.456 717.238, 782.908 731.149 C 777.299 745.216, 773.024 751.214, 767.201 753.188 C 764.313 754.166, 730.076 754.510, 611.443 754.752 L 459.386 755.061 417.787 889.280 L 376.188 1023.500 346.510 1067.500 C 330.188 1091.700, 316.619 1111.838, 316.357 1112.250 C 316.096 1112.662, 386.446 1112.994, 472.691 1112.988 L 629.500 1112.975 657.464 1022.738 C 672.844 973.107, 686.524 928.970, 687.864 924.656 L 690.300 916.813 767.400 917.514 C 846.792 918.236, 870.911 917.651, 894.297 914.438 C 973.063 903.614, 1015.869 866.047, 1044.633 782.500 C 1048.743 770.562, 1126.938 482.259, 1132.440 458.755 C 1137.019 439.200, 1138.271 427.912, 1137.731 411.060 C 1137.352 399.240, 1136.717 393.738, 1135.091 388.171 C 1128.794 366.622, 1114.829 350.777, 1092.638 340.005 C 1076.476 332.159, 1056.668 327.350, 1031 325.041 C 1020.667 324.112, 524 323.407, 524 324.322"/>
        </symbol>
   </defs>
</svg>